<mxfile host="app.diagrams.net" modified="2021-08-09T07:59:04.810Z" agent="5.0 (Windows NT 10.0; Win64; x64) AppleWebKit/537.36 (KHTML, like Gecko) Chrome/92.0.4515.131 Safari/537.36" etag="CETGSEqKeN7_YmWYjzE8" version="14.9.5" type="github">
  <diagram id="kgpKYQtTHZ0yAKxKKP6v" name="Page-1">
    <mxGraphModel dx="1718" dy="460" grid="1" gridSize="10" guides="1" tooltips="1" connect="1" arrows="1" fold="1" page="1" pageScale="1" pageWidth="850" pageHeight="1100" math="0" shadow="0">
      <root>
        <mxCell id="0" />
        <mxCell id="1" parent="0" />
        <mxCell id="kne4ntVSdQ6C4-kGMl_D-27" value="Bimble Flowchart" style="swimlane;childLayout=stackLayout;resizeParent=1;resizeParentMax=0;startSize=20;strokeColor=#000000;fillColor=#ffffff;html=1;" vertex="1" parent="1">
          <mxGeometry x="-50" y="130" width="1130" height="780" as="geometry" />
        </mxCell>
        <mxCell id="kne4ntVSdQ6C4-kGMl_D-28" value="Pengguna" style="swimlane;startSize=20;" vertex="1" parent="kne4ntVSdQ6C4-kGMl_D-27">
          <mxGeometry y="20" width="385.5" height="760" as="geometry" />
        </mxCell>
        <mxCell id="kne4ntVSdQ6C4-kGMl_D-31" value="" style="shape=parallelogram;perimeter=parallelogramPerimeter;whiteSpace=wrap;html=1;fixedSize=1;startSize=40;strokeColor=#000000;fillColor=#ffffff;" vertex="1" parent="kne4ntVSdQ6C4-kGMl_D-28">
          <mxGeometry x="90" y="40" width="180" height="60" as="geometry" />
        </mxCell>
        <mxCell id="kne4ntVSdQ6C4-kGMl_D-34" value="" style="verticalLabelPosition=bottom;verticalAlign=top;html=1;shape=mxgraph.flowchart.on-page_reference;startSize=40;strokeColor=#000000;fillColor=#ffffff;" vertex="1" parent="kne4ntVSdQ6C4-kGMl_D-28">
          <mxGeometry x="30" y="50" width="20" height="20" as="geometry" />
        </mxCell>
        <mxCell id="kne4ntVSdQ6C4-kGMl_D-38" value="Mencari kursus pada unit yang terdaftar" style="text;html=1;strokeColor=none;fillColor=none;align=center;verticalAlign=middle;whiteSpace=wrap;rounded=0;startSize=40;" vertex="1" parent="kne4ntVSdQ6C4-kGMl_D-28">
          <mxGeometry x="115" y="50" width="130" height="40" as="geometry" />
        </mxCell>
        <mxCell id="kne4ntVSdQ6C4-kGMl_D-39" value="" style="rounded=0;whiteSpace=wrap;html=1;startSize=40;strokeColor=#000000;fillColor=#ffffff;" vertex="1" parent="kne4ntVSdQ6C4-kGMl_D-28">
          <mxGeometry x="88" y="150" width="160" height="60" as="geometry" />
        </mxCell>
        <mxCell id="kne4ntVSdQ6C4-kGMl_D-40" value="" style="endArrow=classic;html=1;startSize=40;entryX=0.463;entryY=0.033;entryDx=0;entryDy=0;entryPerimeter=0;" edge="1" parent="kne4ntVSdQ6C4-kGMl_D-28">
          <mxGeometry width="50" height="50" relative="1" as="geometry">
            <mxPoint x="166" y="100" as="sourcePoint" />
            <mxPoint x="165.99999999999994" y="150.00000000000003" as="targetPoint" />
          </mxGeometry>
        </mxCell>
        <mxCell id="kne4ntVSdQ6C4-kGMl_D-46" value="Menampilkan kursus berdasarkan filter" style="text;html=1;strokeColor=none;fillColor=none;align=center;verticalAlign=middle;whiteSpace=wrap;rounded=0;startSize=40;" vertex="1" parent="kne4ntVSdQ6C4-kGMl_D-28">
          <mxGeometry x="100" y="160" width="130" height="40" as="geometry" />
        </mxCell>
        <mxCell id="kne4ntVSdQ6C4-kGMl_D-47" value="" style="shape=cylinder3;whiteSpace=wrap;html=1;boundedLbl=1;backgroundOutline=1;size=15;startSize=40;strokeColor=#000000;fillColor=#ffffff;" vertex="1" parent="kne4ntVSdQ6C4-kGMl_D-28">
          <mxGeometry x="310" y="150" width="40" height="60" as="geometry" />
        </mxCell>
        <mxCell id="kne4ntVSdQ6C4-kGMl_D-48" value="DB" style="text;html=1;strokeColor=none;fillColor=none;align=center;verticalAlign=middle;whiteSpace=wrap;rounded=0;startSize=40;" vertex="1" parent="kne4ntVSdQ6C4-kGMl_D-28">
          <mxGeometry x="310" y="180" width="40" height="20" as="geometry" />
        </mxCell>
        <mxCell id="kne4ntVSdQ6C4-kGMl_D-50" value="" style="endArrow=classic;html=1;startSize=40;" edge="1" parent="kne4ntVSdQ6C4-kGMl_D-28">
          <mxGeometry width="50" height="50" relative="1" as="geometry">
            <mxPoint x="310" y="180" as="sourcePoint" />
            <mxPoint x="249" y="180" as="targetPoint" />
          </mxGeometry>
        </mxCell>
        <mxCell id="kne4ntVSdQ6C4-kGMl_D-53" value="1" style="text;html=1;strokeColor=none;fillColor=none;align=center;verticalAlign=middle;whiteSpace=wrap;rounded=0;startSize=40;" vertex="1" parent="kne4ntVSdQ6C4-kGMl_D-28">
          <mxGeometry x="20" y="50" width="40" height="20" as="geometry" />
        </mxCell>
        <mxCell id="kne4ntVSdQ6C4-kGMl_D-60" value="" style="endArrow=classic;html=1;startSize=40;exitX=0.5;exitY=1;exitDx=0;exitDy=0;" edge="1" parent="kne4ntVSdQ6C4-kGMl_D-28">
          <mxGeometry width="50" height="50" relative="1" as="geometry">
            <mxPoint x="165" y="210" as="sourcePoint" />
            <mxPoint x="165" y="260" as="targetPoint" />
          </mxGeometry>
        </mxCell>
        <mxCell id="kne4ntVSdQ6C4-kGMl_D-61" value="" style="endArrow=classic;html=1;startSize=40;exitX=0.5;exitY=1;exitDx=0;exitDy=0;" edge="1" parent="kne4ntVSdQ6C4-kGMl_D-28">
          <mxGeometry width="50" height="50" relative="1" as="geometry">
            <mxPoint x="164" y="310" as="sourcePoint" />
            <mxPoint x="164" y="380" as="targetPoint" />
          </mxGeometry>
        </mxCell>
        <mxCell id="kne4ntVSdQ6C4-kGMl_D-83" value="" style="shape=parallelogram;perimeter=parallelogramPerimeter;whiteSpace=wrap;html=1;fixedSize=1;startSize=40;strokeColor=#000000;fillColor=#ffffff;" vertex="1" parent="kne4ntVSdQ6C4-kGMl_D-28">
          <mxGeometry x="69" y="380" width="180" height="60" as="geometry" />
        </mxCell>
        <mxCell id="kne4ntVSdQ6C4-kGMl_D-84" value="Mendaftar melalui contact link unit" style="text;html=1;strokeColor=none;fillColor=none;align=center;verticalAlign=middle;whiteSpace=wrap;rounded=0;startSize=40;" vertex="1" parent="kne4ntVSdQ6C4-kGMl_D-28">
          <mxGeometry x="88" y="390" width="130" height="40" as="geometry" />
        </mxCell>
        <mxCell id="kne4ntVSdQ6C4-kGMl_D-87" value="" style="endArrow=classic;html=1;startSize=40;entryX=0.6;entryY=0;entryDx=0;entryDy=0;entryPerimeter=0;" edge="1" parent="kne4ntVSdQ6C4-kGMl_D-28">
          <mxGeometry width="50" height="50" relative="1" as="geometry">
            <mxPoint x="162" y="440" as="sourcePoint" />
            <mxPoint x="162" y="490" as="targetPoint" />
          </mxGeometry>
        </mxCell>
        <mxCell id="kne4ntVSdQ6C4-kGMl_D-88" value="End" style="strokeWidth=1;html=1;shape=mxgraph.flowchart.terminator;whiteSpace=wrap;startSize=40;fillColor=#ffffff;" vertex="1" parent="kne4ntVSdQ6C4-kGMl_D-28">
          <mxGeometry x="115" y="490" width="100" height="60" as="geometry" />
        </mxCell>
        <mxCell id="kne4ntVSdQ6C4-kGMl_D-123" value="" style="endArrow=classic;html=1;startSize=40;entryX=0.75;entryY=0;entryDx=0;entryDy=0;entryPerimeter=0;exitX=0;exitY=0.5;exitDx=0;exitDy=0;exitPerimeter=0;edgeStyle=orthogonalEdgeStyle;" edge="1" parent="kne4ntVSdQ6C4-kGMl_D-27" source="kne4ntVSdQ6C4-kGMl_D-121" target="kne4ntVSdQ6C4-kGMl_D-122">
          <mxGeometry width="50" height="50" relative="1" as="geometry">
            <mxPoint x="880" y="230" as="sourcePoint" />
            <mxPoint x="880" y="280" as="targetPoint" />
          </mxGeometry>
        </mxCell>
        <mxCell id="kne4ntVSdQ6C4-kGMl_D-157" value="" style="endArrow=classic;html=1;startSize=40;exitX=0.063;exitY=1.033;exitDx=0;exitDy=0;exitPerimeter=0;edgeStyle=orthogonalEdgeStyle;entryX=0.97;entryY=0.667;entryDx=0;entryDy=0;entryPerimeter=0;" edge="1" parent="kne4ntVSdQ6C4-kGMl_D-27">
          <mxGeometry width="50" height="50" relative="1" as="geometry">
            <mxPoint x="914.0799999999999" y="379.98" as="sourcePoint" />
            <mxPoint x="673.9499999999998" y="468.02" as="targetPoint" />
            <Array as="points">
              <mxPoint x="914" y="468" />
            </Array>
          </mxGeometry>
        </mxCell>
        <mxCell id="kne4ntVSdQ6C4-kGMl_D-158" value="" style="endArrow=classic;html=1;startSize=40;exitX=0;exitY=0.5;exitDx=0;exitDy=0;exitPerimeter=0;entryX=0.75;entryY=1;entryDx=0;entryDy=0;edgeStyle=orthogonalEdgeStyle;" edge="1" parent="kne4ntVSdQ6C4-kGMl_D-27" source="kne4ntVSdQ6C4-kGMl_D-152">
          <mxGeometry width="50" height="50" relative="1" as="geometry">
            <mxPoint x="900" y="510" as="sourcePoint" />
            <mxPoint x="604.75" y="490" as="targetPoint" />
            <Array as="points">
              <mxPoint x="605" y="510" />
            </Array>
          </mxGeometry>
        </mxCell>
        <mxCell id="kne4ntVSdQ6C4-kGMl_D-29" value="Unit" style="swimlane;startSize=20;" vertex="1" parent="kne4ntVSdQ6C4-kGMl_D-27">
          <mxGeometry x="385.5" y="20" width="414.5" height="760" as="geometry" />
        </mxCell>
        <mxCell id="kne4ntVSdQ6C4-kGMl_D-89" value="Start" style="strokeWidth=1;html=1;shape=mxgraph.flowchart.terminator;whiteSpace=wrap;startSize=40;fillColor=#ffffff;" vertex="1" parent="kne4ntVSdQ6C4-kGMl_D-29">
          <mxGeometry x="157.25" y="40" width="100" height="60" as="geometry" />
        </mxCell>
        <mxCell id="kne4ntVSdQ6C4-kGMl_D-92" value="Mendaftar sebagai &lt;br&gt;pengelola kursus" style="shape=parallelogram;perimeter=parallelogramPerimeter;whiteSpace=wrap;html=1;fixedSize=1;startSize=40;strokeColor=#000000;fillColor=#ffffff;" vertex="1" parent="kne4ntVSdQ6C4-kGMl_D-29">
          <mxGeometry x="124.5" y="150" width="180" height="60" as="geometry" />
        </mxCell>
        <mxCell id="kne4ntVSdQ6C4-kGMl_D-93" value="" style="endArrow=classic;html=1;startSize=40;entryX=0.463;entryY=0.033;entryDx=0;entryDy=0;entryPerimeter=0;" edge="1" parent="kne4ntVSdQ6C4-kGMl_D-29">
          <mxGeometry width="50" height="50" relative="1" as="geometry">
            <mxPoint x="208" y="210" as="sourcePoint" />
            <mxPoint x="208" y="260" as="targetPoint" />
          </mxGeometry>
        </mxCell>
        <mxCell id="kne4ntVSdQ6C4-kGMl_D-90" value="" style="endArrow=classic;html=1;startSize=40;entryX=0.463;entryY=0.033;entryDx=0;entryDy=0;entryPerimeter=0;" edge="1" parent="kne4ntVSdQ6C4-kGMl_D-29">
          <mxGeometry width="50" height="50" relative="1" as="geometry">
            <mxPoint x="206.75" y="100" as="sourcePoint" />
            <mxPoint x="206.75" y="150" as="targetPoint" />
          </mxGeometry>
        </mxCell>
        <mxCell id="kne4ntVSdQ6C4-kGMl_D-95" value="Secara online" style="strokeWidth=1;html=1;shape=mxgraph.flowchart.decision;whiteSpace=wrap;startSize=40;fillColor=#ffffff;" vertex="1" parent="kne4ntVSdQ6C4-kGMl_D-29">
          <mxGeometry x="158.25" y="261" width="100" height="100" as="geometry" />
        </mxCell>
        <mxCell id="kne4ntVSdQ6C4-kGMl_D-98" value="" style="endArrow=classic;html=1;startSize=40;entryX=0.463;entryY=0.033;entryDx=0;entryDy=0;entryPerimeter=0;" edge="1" parent="kne4ntVSdQ6C4-kGMl_D-29">
          <mxGeometry width="50" height="50" relative="1" as="geometry">
            <mxPoint x="208.75" y="361" as="sourcePoint" />
            <mxPoint x="208.75" y="411" as="targetPoint" />
          </mxGeometry>
        </mxCell>
        <mxCell id="kne4ntVSdQ6C4-kGMl_D-101" value="Input berkas melalui &lt;br&gt;form aplikasi" style="rounded=0;whiteSpace=wrap;html=1;startSize=40;strokeColor=#000000;fillColor=#ffffff;" vertex="1" parent="kne4ntVSdQ6C4-kGMl_D-29">
          <mxGeometry x="129.25" y="410" width="160" height="60" as="geometry" />
        </mxCell>
        <mxCell id="kne4ntVSdQ6C4-kGMl_D-104" value="Unit berhasil terdaftar" style="rounded=0;whiteSpace=wrap;html=1;startSize=40;strokeColor=#000000;fillColor=#ffffff;" vertex="1" parent="kne4ntVSdQ6C4-kGMl_D-29">
          <mxGeometry x="137.5" y="602" width="160" height="60" as="geometry" />
        </mxCell>
        <mxCell id="kne4ntVSdQ6C4-kGMl_D-109" value="" style="verticalLabelPosition=bottom;verticalAlign=top;html=1;shape=mxgraph.flowchart.on-page_reference;startSize=40;strokeColor=#000000;strokeWidth=1;fillColor=#ffffff;" vertex="1" parent="kne4ntVSdQ6C4-kGMl_D-29">
          <mxGeometry x="200" y="704" width="20" height="20" as="geometry" />
        </mxCell>
        <mxCell id="kne4ntVSdQ6C4-kGMl_D-110" value="" style="endArrow=classic;html=1;startSize=40;" edge="1" parent="kne4ntVSdQ6C4-kGMl_D-29">
          <mxGeometry width="50" height="50" relative="1" as="geometry">
            <mxPoint x="209.5" y="661" as="sourcePoint" />
            <mxPoint x="209.5" y="701" as="targetPoint" />
            <Array as="points" />
          </mxGeometry>
        </mxCell>
        <mxCell id="kne4ntVSdQ6C4-kGMl_D-111" value="1" style="text;html=1;strokeColor=none;fillColor=none;align=center;verticalAlign=middle;whiteSpace=wrap;rounded=0;startSize=40;" vertex="1" parent="kne4ntVSdQ6C4-kGMl_D-29">
          <mxGeometry x="190" y="704" width="40" height="20" as="geometry" />
        </mxCell>
        <mxCell id="kne4ntVSdQ6C4-kGMl_D-112" value="" style="shape=cylinder3;whiteSpace=wrap;html=1;boundedLbl=1;backgroundOutline=1;size=15;startSize=40;strokeColor=#000000;fillColor=#ffffff;" vertex="1" parent="kne4ntVSdQ6C4-kGMl_D-29">
          <mxGeometry x="24.5" y="410" width="40" height="60" as="geometry" />
        </mxCell>
        <mxCell id="kne4ntVSdQ6C4-kGMl_D-113" value="DB" style="text;html=1;strokeColor=none;fillColor=none;align=center;verticalAlign=middle;whiteSpace=wrap;rounded=0;startSize=40;" vertex="1" parent="kne4ntVSdQ6C4-kGMl_D-29">
          <mxGeometry x="24.5" y="440" width="40" height="20" as="geometry" />
        </mxCell>
        <mxCell id="kne4ntVSdQ6C4-kGMl_D-115" value="" style="endArrow=classic;html=1;startSize=40;entryX=1;entryY=0;entryDx=0;entryDy=0;exitX=0;exitY=0.5;exitDx=0;exitDy=0;" edge="1" parent="kne4ntVSdQ6C4-kGMl_D-29">
          <mxGeometry width="50" height="50" relative="1" as="geometry">
            <mxPoint x="129.25" y="442" as="sourcePoint" />
            <mxPoint x="64.5" y="442" as="targetPoint" />
          </mxGeometry>
        </mxCell>
        <mxCell id="kne4ntVSdQ6C4-kGMl_D-122" value="&#xa;&#xa;&lt;span style=&quot;color: rgb(0, 0, 0); font-family: helvetica; font-size: 12px; font-style: normal; font-weight: 400; letter-spacing: normal; text-align: center; text-indent: 0px; text-transform: none; word-spacing: 0px; background-color: rgb(248, 249, 250); display: inline; float: none;&quot;&gt;Berkas verifikasi pendaftaran&lt;/span&gt;&#xa;&#xa;" style="strokeWidth=1;html=1;shape=mxgraph.flowchart.document2;whiteSpace=wrap;size=0.25;startSize=40;fillColor=#ffffff;" vertex="1" parent="kne4ntVSdQ6C4-kGMl_D-29">
          <mxGeometry x="304.5" y="321" width="100" height="60" as="geometry" />
        </mxCell>
        <mxCell id="kne4ntVSdQ6C4-kGMl_D-124" value="A" style="strokeWidth=1;html=1;shape=mxgraph.flowchart.merge_or_storage;whiteSpace=wrap;startSize=40;fillColor=#ffffff;" vertex="1" parent="kne4ntVSdQ6C4-kGMl_D-29">
          <mxGeometry x="354.5" y="407" width="30.5" height="22" as="geometry" />
        </mxCell>
        <mxCell id="kne4ntVSdQ6C4-kGMl_D-125" value="" style="endArrow=classic;html=1;startSize=40;" edge="1" parent="kne4ntVSdQ6C4-kGMl_D-29">
          <mxGeometry width="50" height="50" relative="1" as="geometry">
            <mxPoint x="369.25" y="368" as="sourcePoint" />
            <mxPoint x="369.5" y="407" as="targetPoint" />
          </mxGeometry>
        </mxCell>
        <mxCell id="kne4ntVSdQ6C4-kGMl_D-127" value="&lt;font style=&quot;font-size: 13px&quot;&gt;&lt;b&gt;T&lt;/b&gt;&lt;/font&gt;" style="text;html=1;strokeColor=none;fillColor=none;align=center;verticalAlign=middle;whiteSpace=wrap;rounded=0;startSize=40;" vertex="1" parent="kne4ntVSdQ6C4-kGMl_D-29">
          <mxGeometry x="264.5" y="294" width="40" height="20" as="geometry" />
        </mxCell>
        <mxCell id="kne4ntVSdQ6C4-kGMl_D-148" value="&lt;span style=&quot;font-size: 13px&quot;&gt;&lt;b&gt;Y&lt;/b&gt;&lt;/span&gt;" style="text;html=1;strokeColor=none;fillColor=none;align=center;verticalAlign=middle;whiteSpace=wrap;rounded=0;startSize=40;" vertex="1" parent="kne4ntVSdQ6C4-kGMl_D-29">
          <mxGeometry x="197.5" y="362" width="40" height="20" as="geometry" />
        </mxCell>
        <mxCell id="kne4ntVSdQ6C4-kGMl_D-30" value="Manager" style="swimlane;startSize=20;" vertex="1" parent="kne4ntVSdQ6C4-kGMl_D-27">
          <mxGeometry x="800" y="20" width="330" height="760" as="geometry" />
        </mxCell>
        <mxCell id="kne4ntVSdQ6C4-kGMl_D-116" value="Melayani berkas pendaftaran" style="verticalLabelPosition=middle;verticalAlign=middle;html=1;shape=trapezoid;perimeter=trapezoidPerimeter;whiteSpace=wrap;size=0.23;arcSize=10;flipV=1;labelPosition=center;align=center;startSize=40;strokeColor=#000000;strokeWidth=1;fillColor=#ffffff;" vertex="1" parent="kne4ntVSdQ6C4-kGMl_D-30">
          <mxGeometry x="100" y="50" width="120" height="70" as="geometry" />
        </mxCell>
        <mxCell id="kne4ntVSdQ6C4-kGMl_D-121" value="Berkas verifikasi pendaftaran" style="strokeWidth=1;html=1;shape=mxgraph.flowchart.document2;whiteSpace=wrap;size=0.25;startSize=40;fillColor=#ffffff;" vertex="1" parent="kne4ntVSdQ6C4-kGMl_D-30">
          <mxGeometry x="110" y="170" width="100" height="60" as="geometry" />
        </mxCell>
        <mxCell id="kne4ntVSdQ6C4-kGMl_D-150" value="Verifikasi Berkas" style="rounded=0;whiteSpace=wrap;html=1;startSize=40;strokeColor=#000000;fillColor=#ffffff;" vertex="1" parent="kne4ntVSdQ6C4-kGMl_D-30">
          <mxGeometry x="100" y="300" width="160" height="60" as="geometry" />
        </mxCell>
        <mxCell id="kne4ntVSdQ6C4-kGMl_D-151" value="" style="endArrow=classic;html=1;startSize=40;entryX=0.5;entryY=0;entryDx=0;entryDy=0;entryPerimeter=0;" edge="1" parent="kne4ntVSdQ6C4-kGMl_D-30" target="kne4ntVSdQ6C4-kGMl_D-152">
          <mxGeometry width="50" height="50" relative="1" as="geometry">
            <mxPoint x="179.5" y="360" as="sourcePoint" />
            <mxPoint x="179.5" y="410" as="targetPoint" />
          </mxGeometry>
        </mxCell>
        <mxCell id="kne4ntVSdQ6C4-kGMl_D-152" value="Benar" style="strokeWidth=1;html=1;shape=mxgraph.flowchart.decision;whiteSpace=wrap;startSize=40;fillColor=#ffffff;" vertex="1" parent="kne4ntVSdQ6C4-kGMl_D-30">
          <mxGeometry x="130" y="440" width="100" height="100" as="geometry" />
        </mxCell>
        <mxCell id="kne4ntVSdQ6C4-kGMl_D-160" value="&lt;font style=&quot;font-size: 13px&quot;&gt;&lt;b&gt;T&lt;/b&gt;&lt;/font&gt;" style="text;html=1;strokeColor=none;fillColor=none;align=center;verticalAlign=middle;whiteSpace=wrap;rounded=0;startSize=40;" vertex="1" parent="kne4ntVSdQ6C4-kGMl_D-30">
          <mxGeometry x="20" y="470" width="40" height="20" as="geometry" />
        </mxCell>
        <mxCell id="kne4ntVSdQ6C4-kGMl_D-163" value="&lt;span style=&quot;font-size: 13px&quot;&gt;&lt;b&gt;Y&lt;/b&gt;&lt;/span&gt;" style="text;html=1;strokeColor=none;fillColor=none;align=center;verticalAlign=middle;whiteSpace=wrap;rounded=0;startSize=40;" vertex="1" parent="kne4ntVSdQ6C4-kGMl_D-30">
          <mxGeometry x="170" y="540" width="40" height="20" as="geometry" />
        </mxCell>
        <mxCell id="kne4ntVSdQ6C4-kGMl_D-156" value="" style="endArrow=classic;html=1;startSize=40;edgeStyle=orthogonalEdgeStyle;exitX=0.5;exitY=0.9;exitDx=0;exitDy=0;exitPerimeter=0;" edge="1" parent="kne4ntVSdQ6C4-kGMl_D-27">
          <mxGeometry width="50" height="50" relative="1" as="geometry">
            <mxPoint x="980" y="560" as="sourcePoint" />
            <mxPoint x="603" y="620" as="targetPoint" />
            <Array as="points">
              <mxPoint x="980" y="590" />
              <mxPoint x="603" y="590" />
            </Array>
          </mxGeometry>
        </mxCell>
        <mxCell id="kne4ntVSdQ6C4-kGMl_D-35" value="" style="endArrow=classic;html=1;startSize=40;exitX=1;exitY=0.5;exitDx=0;exitDy=0;exitPerimeter=0;" edge="1" parent="1" source="kne4ntVSdQ6C4-kGMl_D-34">
          <mxGeometry width="50" height="50" relative="1" as="geometry">
            <mxPoint x="19" y="210" as="sourcePoint" />
            <mxPoint x="50" y="210" as="targetPoint" />
            <Array as="points">
              <mxPoint x="40" y="210" />
            </Array>
          </mxGeometry>
        </mxCell>
        <mxCell id="kne4ntVSdQ6C4-kGMl_D-55" value="" style="shape=parallelogram;perimeter=parallelogramPerimeter;whiteSpace=wrap;html=1;fixedSize=1;startSize=40;strokeColor=#000000;fillColor=#ffffff;" vertex="1" parent="1">
          <mxGeometry x="30" y="410" width="180" height="60" as="geometry" />
        </mxCell>
        <mxCell id="kne4ntVSdQ6C4-kGMl_D-56" value="Memilih kursus dari hasil filter" style="text;html=1;strokeColor=none;fillColor=none;align=center;verticalAlign=middle;whiteSpace=wrap;rounded=0;startSize=40;" vertex="1" parent="1">
          <mxGeometry x="45" y="420" width="130" height="40" as="geometry" />
        </mxCell>
        <mxCell id="kne4ntVSdQ6C4-kGMl_D-119" value="" style="endArrow=classic;html=1;startSize=40;entryX=0.463;entryY=0.033;entryDx=0;entryDy=0;entryPerimeter=0;" edge="1" parent="1">
          <mxGeometry width="50" height="50" relative="1" as="geometry">
            <mxPoint x="908" y="270" as="sourcePoint" />
            <mxPoint x="908" y="320" as="targetPoint" />
          </mxGeometry>
        </mxCell>
        <mxCell id="kne4ntVSdQ6C4-kGMl_D-126" value="" style="endArrow=classic;html=1;startSize=40;entryX=0.463;entryY=0.033;entryDx=0;entryDy=0;entryPerimeter=0;exitX=0;exitY=0.5;exitDx=0;exitDy=0;edgeStyle=orthogonalEdgeStyle;" edge="1" parent="1">
          <mxGeometry width="50" height="50" relative="1" as="geometry">
            <mxPoint x="860.8000000000002" y="230" as="sourcePoint" />
            <mxPoint x="595" y="461" as="targetPoint" />
            <Array as="points">
              <mxPoint x="670" y="230" />
              <mxPoint x="670" y="461" />
            </Array>
          </mxGeometry>
        </mxCell>
      </root>
    </mxGraphModel>
  </diagram>
</mxfile>
